<!-- icon666.com - MILLIONS vector ICONS FREE --><svg xmlns="http://www.w3.org/2000/svg" viewBox="0 0 32 32"><title>Azanramadan,</title><g id="Layer_25" data-name="Layer 25"><path d="M30.32,18.132l-5.439-5.439a.25.25,0,0,0-.354,0l-.487.487c-.789-1.523-.5-4.933-.5-4.969l0-.009c0-.006.007-.01.007-.016a7.545,7.545,0,0,0-15.09,0c0,.006.006.01.007.016l0,.009c0,.036.29,3.446-.5,4.969l-.487-.487a.25.25,0,0,0-.354,0L1.68,18.132a2.748,2.748,0,0,0,3.887,3.887l.208-.208v9.3a.25.25,0,0,0,.25.25H25.985a.25.25,0,0,0,.25-.25V21.82l.2.2a2.748,2.748,0,0,0,3.887-3.887Zm-8.767-2.465a4.411,4.411,0,0,1-1.286-.423,5.389,5.389,0,0,0,1.154-3.332v-.932h1.616a6.363,6.363,0,0,0,.64,2.563Zm-2.6,1.419a2.953,2.953,0,1,1-5.906,0,2.89,2.89,0,0,1,.069-.592,5.377,5.377,0,0,0,5.768,0A2.89,2.89,0,0,1,18.953,17.085ZM16,16.833a4.926,4.926,0,0,1-4.921-4.921V8.434h9.842v3.478A4.926,4.926,0,0,1,16,16.833Zm-7.024-8.4h1.6v2.045H9A19.362,19.362,0,0,0,8.976,8.434Zm14.047,0A19.362,19.362,0,0,0,23,10.479H21.421V8.434ZM16,1.139a7.055,7.055,0,0,1,7.041,6.795H8.959A7.055,7.055,0,0,1,16,1.139Zm-7.037,9.84h1.616v.932a5.389,5.389,0,0,0,1.154,3.332,4.4,4.4,0,0,1-1.284.424L8.323,13.543A6.363,6.363,0,0,0,8.963,10.979ZM5.213,21.665a2.248,2.248,0,0,1-3.18-3.18L7.3,13.223l.561.561,0,0h0L10.476,16.4l-4.62,4.62-.01.01Zm1.062-.354,4.731-4.731a.25.25,0,0,0,0-.354l-.145-.145a5.019,5.019,0,0,0,1.21-.445,5.46,5.46,0,0,0,.607.55,3.354,3.354,0,0,0,.946,3.393V30.861H6.274Zm7.85-1.333a3.425,3.425,0,0,0,1.626.536V30.861H14.124ZM16.25,30.861V20.514a3.425,3.425,0,0,0,1.626-.536V30.861Zm9.485,0H18.376V19.58a3.354,3.354,0,0,0,.946-3.393,5.453,5.453,0,0,0,.607-.551,4.989,4.989,0,0,0,1.213.442l-.148.148a.25.25,0,0,0,0,.354l3.035,3.035H19.968a.25.25,0,0,0-.25.25v3.295a2.375,2.375,0,1,0,4.749,0V20.052l1.269,1.269ZM23.967,20.114v3.045a1.875,1.875,0,1,1-3.749,0V20.114Zm6,1.551a2.25,2.25,0,0,1-3.18,0l-.622-.622-.01-.01-4.63-4.63.271-.271a.224.224,0,0,0,.049-.049l2.3-2.3h0l0,0,.561-.561,5.263,5.263A2.25,2.25,0,0,1,29.967,21.665Z"></path><path d="M16,12.583c-1.174,0-2.094.55-2.094,1.252s.92,1.252,2.094,1.252,2.094-.55,2.094-1.252S17.174,12.583,16,12.583Zm0,2c-.939,0-1.594-.4-1.594-.752s.654-.752,1.594-.752,1.594.4,1.594.752S16.939,14.588,16,14.588Z"></path></g></svg>