<?xml version="1.0" standalone="no"?>
<!DOCTYPE svg PUBLIC "-//W3C//DTD SVG 20010904//EN"
 "http://www.w3.org/TR/2001/REC-SVG-20010904/DTD/svg10.dtd">
<svg version="1.0" xmlns="http://www.w3.org/2000/svg"
 width="787.000000pt" height="1024.000000pt" viewBox="0 0 787.000000 1024.000000"
 preserveAspectRatio="xMidYMid meet">

<g transform="translate(0.000000,1024.000000) scale(0.100000,-0.100000)"
fill="#000000" stroke="none">
<path d="M3847 10078 c-153 -257 -286 -425 -436 -555 -192 -167 -342 -245
-766 -400 -374 -136 -622 -254 -852 -406 -159 -103 -250 -173 -523 -397 -550
-451 -751 -569 -1053 -617 -56 -9 -106 -19 -110 -23 -11 -10 124 -182 197
-253 81 -78 187 -148 284 -187 l80 -33 -62 -101 c-589 -956 -734 -2157 -389
-3231 79 -246 222 -568 347 -778 25 -43 46 -80 46 -82 0 -2 -30 -17 -66 -34
-82 -38 -177 -106 -247 -174 -69 -68 -200 -238 -190 -247 4 -4 54 -14 110 -23
189 -30 354 -100 562 -238 128 -85 219 -155 516 -399 537 -442 749 -562 1413
-806 394 -145 577 -249 768 -439 148 -148 257 -294 394 -528 34 -59 64 -107
65 -105 1 2 33 55 70 118 136 232 258 393 401 531 211 202 339 270 904 479
361 133 639 278 905 469 105 75 110 79 405 321 516 424 711 538 1018 595 68
13 125 25 127 27 2 2 -29 46 -69 98 -120 155 -249 266 -381 326 -30 14 -55 27
-55 29 0 2 20 38 46 80 25 43 76 139 114 215 215 429 340 850 396 1335 24 208
24 634 0 840 -67 580 -247 1115 -534 1592 l-80 131 59 22 c152 57 303 178 435
350 40 52 71 96 69 98 -2 2 -59 14 -127 27 -308 57 -493 166 -1022 600 -375
307 -516 408 -741 533 -196 109 -302 154 -714 308 -415 155 -575 247 -772 443
-133 133 -244 278 -355 465 -43 72 -83 139 -89 149 -11 15 -23 -1 -98 -125z
m138 -300 c107 -162 262 -334 400 -445 172 -139 359 -235 690 -358 295 -108
452 -174 595 -246 275 -139 415 -235 783 -537 302 -248 458 -366 584 -445 104
-64 270 -149 328 -167 22 -7 44 -16 48 -20 15 -13 -76 -81 -168 -125 -113 -55
-181 -69 -320 -68 -158 0 -320 40 -494 119 -105 48 -122 46 -197 -26 -36 -34
-87 -72 -120 -87 -114 -52 -203 -17 -449 173 -254 198 -397 281 -562 326 -63
17 -106 21 -228 21 -131 0 -163 -3 -249 -26 -183 -49 -394 -159 -592 -307
l-101 -76 -49 38 c-183 144 -403 267 -573 322 -363 117 -644 54 -1015 -227
-311 -236 -376 -273 -466 -265 -68 7 -117 35 -201 115 l-76 73 -84 -39 c-203
-95 -358 -134 -534 -134 -196 -1 -341 54 -488 183 -4 4 20 17 55 29 89 32 273
130 381 203 123 81 257 185 527 407 516 424 699 530 1298 755 319 120 376 143
492 204 253 133 455 315 654 590 44 61 81 112 82 112 1 0 23 -33 49 -72z
m-853 -2082 c206 -40 431 -160 689 -368 76 -61 116 -88 124 -82 7 5 59 47 116
93 206 167 435 296 609 343 68 18 110 23 210 22 114 0 133 -3 218 -32 121 -42
218 -98 377 -221 186 -144 324 -235 391 -261 87 -32 193 -37 274 -11 l65 20
28 -27 c53 -50 224 -268 300 -383 257 -389 420 -820 488 -1287 25 -178 35
-504 20 -683 -28 -329 -105 -653 -225 -944 -118 -285 -353 -666 -519 -842
l-30 -32 -41 24 c-132 76 -281 72 -435 -11 -63 -34 -96 -59 -322 -230 -240
-182 -405 -253 -590 -254 -239 0 -540 139 -841 389 -54 45 -100 81 -103 81 -3
0 -55 -40 -116 -90 -371 -299 -689 -420 -958 -366 -166 34 -279 95 -529 289
-268 208 -334 241 -488 242 -95 0 -104 -2 -172 -36 l-72 -35 -29 30 c-170 182
-404 565 -524 861 -386 949 -277 2039 291 2895 77 117 246 333 299 383 l30 27
39 -17 c28 -13 66 -17 139 -17 89 -1 107 2 165 29 93 42 156 83 322 212 174
135 291 210 385 248 133 53 277 67 415 41z m-1672 -433 c-101 -120 -154 -188
-212 -268 -557 -778 -751 -1767 -528 -2700 102 -429 302 -856 560 -1199 l77
-103 -46 14 c-129 40 -230 56 -366 59 l-140 2 -34 54 c-63 97 -170 301 -232
441 -153 347 -247 695 -295 1097 -22 176 -24 597 -6 770 67 609 257 1154 575
1648 l59 92 62 0 c133 0 348 46 491 104 33 13 61 25 63 25 2 1 -11 -16 -28
-36z m5210 -59 c58 -13 156 -27 217 -31 l113 -6 58 -91 c646 -1004 769 -2261
330 -3376 -66 -168 -194 -427 -274 -555 l-50 -80 -94 3 c-109 4 -258 -16 -376
-51 l-81 -23 61 80 c342 448 561 984 641 1571 22 161 30 501 16 680 -58 723
-325 1354 -819 1936 l-31 36 92 -35 c50 -19 139 -45 197 -58z m-4730 -4337
c67 -28 116 -61 280 -188 159 -122 254 -186 357 -238 348 -174 723 -121 1148
164 61 41 132 91 159 113 l49 38 103 -77 c458 -341 856 -422 1229 -249 110 50
214 119 400 264 246 190 335 225 449 173 33 -15 84 -53 120 -87 72 -69 97 -75
174 -36 74 36 179 74 282 100 213 54 390 42 555 -39 92 -45 183 -112 168 -125
-4 -4 -26 -13 -48 -20 -66 -21 -252 -118 -357 -186 -133 -86 -255 -179 -523
-400 -287 -234 -400 -320 -553 -416 -215 -134 -435 -238 -749 -353 -371 -135
-558 -222 -712 -333 -172 -123 -351 -310 -486 -507 -26 -38 -50 -69 -52 -68
-2 1 -27 35 -55 75 -178 255 -365 434 -601 577 -119 72 -226 119 -517 228
-332 124 -398 151 -560 232 -257 129 -474 279 -825 571 -395 329 -658 504
-873 581 l-63 22 28 24 c56 46 129 91 190 117 65 27 208 56 277 56 136 0 361
-59 535 -141 l85 -40 70 70 c62 61 113 96 166 114 34 12 98 5 150 -16z"/>
<path d="M3867 8949 c-204 -30 -367 -220 -367 -429 0 -210 161 -397 370 -430
302 -46 564 243 486 536 -58 218 -266 356 -489 323z"/>
<path d="M2850 8528 c-425 -160 -691 -292 -956 -476 -74 -52 -106 -81 -119
-108 -32 -67 -3 -142 69 -178 55 -27 89 -16 238 83 244 161 399 240 732 372
110 43 210 89 223 101 47 44 50 132 6 180 -46 52 -105 59 -193 26z"/>
<path d="M4870 8543 c-23 -9 -60 -45 -76 -75 -26 -51 -12 -109 38 -155 12 -11
77 -41 143 -66 345 -129 573 -243 817 -409 131 -90 170 -102 228 -70 68 37 93
125 55 190 -21 35 -260 197 -425 288 -156 86 -396 191 -624 275 -76 28 -123
34 -156 22z"/>
<path d="M1841 2472 c-19 -9 -44 -30 -55 -45 -27 -37 -28 -111 -2 -150 21 -31
252 -187 403 -271 209 -116 686 -316 755 -316 40 0 90 29 114 65 22 34 22 106
1 139 -25 38 -48 50 -228 120 -314 122 -489 209 -729 366 -180 118 -197 124
-259 92z"/>
<path d="M5911 2479 c-13 -5 -52 -29 -85 -53 -109 -78 -278 -178 -416 -247
-123 -61 -504 -219 -528 -219 -17 0 -72 -51 -87 -81 -8 -15 -15 -41 -15 -56 0
-61 72 -133 134 -133 59 0 534 192 687 278 235 132 422 254 462 302 53 62 32
161 -43 201 -38 21 -72 23 -109 8z"/>
<path d="M3860 2149 c-236 -39 -404 -289 -350 -520 40 -174 191 -314 361 -338
351 -48 610 314 449 629 -85 167 -273 260 -460 229z"/>
</g>
</svg>
