<?xml version="1.0" encoding="utf-8"?>
<svg viewBox="0 0 500 500" xmlns="http://www.w3.org/2000/svg">
  <g style="mix-blend-mode: soft-light;" opacity="0.5" transform="matrix(1.353414, 0, 0, 1.353414, 27.305704, -2.156287)">
    <path d="M-14 143.07H92.3C92.3 143.07 84.7 119.77 71.9 123.17C59.1 126.47 59.6 129.37 59.6 129.37C59.6 129.37 55.8 109.47 38.7 112.27C21.6 115.07 17.8 128.87 17.8 128.87C17.8 128.87 6.90001 124.57 2.10001 128.87C-2.59999 133.17 -1.69998 135.47 -1.69998 135.47C-1.69998 135.47 -12.1 130.77 -14 143.07Z" fill="white"/>
  </g>
  <g style="mix-blend-mode: soft-light;" opacity="0.8" transform="matrix(1.353414, 0, 0, 1.353414, 27.305704, -2.156287)">
    <path d="M267 100.216C265.8 96.8161 263.1 90.9161 258.9 89.5161C252.9 87.5161 244 94.1161 244 94.1161C244 94.1161 239.7 78.6161 225.3 78.0161C210.9 77.4161 213.5 93.8161 213.5 93.8161C213.5 93.8161 209.8 92.7161 202.3 90.4161C194.8 88.1161 192.2 95.0161 192.2 95.0161C187.5 93.3161 185.6 97.8161 185 100.216H267Z" fill="white"/>
  </g>
  <path d="M 86.45 -2.157 C 86.45 -2.157 86.179 1.362 82.795 1.767 C 86.179 2.174 86.45 5.693 86.45 5.693 C 86.45 5.693 86.721 2.174 90.104 1.767 C 86.721 1.498 86.45 -2.157 86.45 -2.157 Z" fill="#FFD08A" style=""/>
  <path d="M 267.807 53.333 C 267.807 53.333 267.536 56.852 264.152 57.259 C 267.536 57.663 267.807 61.182 267.807 61.182 C 267.807 61.182 268.078 57.663 271.462 57.259 C 268.078 56.987 267.807 53.333 267.807 53.333 Z" fill="#FFD08A" style=""/>
  <path d="M 135.173 39.799 C 135.173 39.799 134.902 43.318 131.519 43.723 C 134.902 44.13 135.173 47.649 135.173 47.649 C 135.173 47.649 135.444 44.13 138.827 43.723 C 135.444 43.453 135.173 39.799 135.173 39.799 Z" fill="#FFD08A" style=""/>
  <path d="M 432.924 133.184 C 432.924 133.184 432.653 136.703 429.269 137.109 C 432.653 137.515 432.924 141.034 432.924 141.034 C 432.924 141.034 433.195 137.515 436.578 137.109 C 433.06 136.838 432.924 133.184 432.924 133.184 Z" fill="#FFD08A" style=""/>
  <path d="M 275.386 213.848 C 275.386 213.848 275.116 217.367 271.732 217.773 C 275.116 218.178 275.386 221.698 275.386 221.698 C 275.386 221.698 275.657 218.178 279.041 217.773 C 275.522 217.501 275.386 213.848 275.386 213.848 Z" fill="#FFD08A" style=""/>
  <path d="M 215.566 92.582 C 215.566 92.582 214.889 102.056 205.956 102.867 C 214.889 103.816 215.566 113.154 215.566 113.154 C 215.566 113.154 216.243 103.68 225.174 102.867 C 216.243 102.056 215.566 92.582 215.566 92.582 Z" fill="#FFD08A" style=""/>
  <path d="M 47.743 77.288 C 47.743 77.288 47.065 86.763 38.134 87.574 C 47.065 88.523 47.743 97.86 47.743 97.86 C 47.743 97.86 48.419 88.387 57.353 87.574 C 48.419 86.763 47.743 77.288 47.743 77.288 Z" fill="#FFD08A" style=""/>
  <path d="M 206.227 -2.157 C 206.227 -2.157 205.686 4.745 199.189 5.422 C 205.686 6.1 206.227 13 206.227 13 C 206.227 13 206.769 6.1 213.265 5.422 C 206.769 4.61 206.227 -2.157 206.227 -2.157 Z" fill="#FFD08A" style=""/>
  <path d="M 106.616 126.417 C 106.616 126.417 106.209 132.507 100.39 133.184 C 106.209 133.726 106.616 139.951 106.616 139.951 C 106.616 139.951 107.022 133.86 112.842 133.184 C 107.157 132.507 106.616 126.417 106.616 126.417 Z" fill="#FFD08A" style=""/>
  <path d="M 161.97 261.623 C 161.97 261.623 161.565 267.713 155.744 268.39 C 161.565 268.932 161.97 275.156 161.97 275.156 C 161.97 275.156 162.377 269.067 168.196 268.39 C 162.377 267.713 161.97 261.623 161.97 261.623 Z" fill="#FFD08A" style=""/>
  <g style="mix-blend-mode: soft-light;" opacity="0.5" transform="matrix(1.353414, 0, 0, 1.353414, 27.305704, -2.156287)">
    <path d="M237.8 168.5H344.1C344.1 168.5 336.5 145.2 323.7 148.6C310.9 151.9 311.4 154.8 311.4 154.8C311.4 154.8 307.6 134.9 290.5 137.7C273.4 140.5 269.6 154.3 269.6 154.3C269.6 154.3 258.7 150 253.9 154.3C249.2 158.6 250.1 160.9 250.1 160.9C250.1 160.9 239.7 156.2 237.8 168.5Z" fill="white"/>
  </g>
  <path opacity="0.25" d="M 242.362 491.568 C 336.47 491.568 412.758 473.815 412.758 451.914 C 412.758 430.011 336.47 412.258 242.362 412.258 C 148.257 412.258 71.969 430.011 71.969 451.914 C 71.969 473.815 148.257 491.568 242.362 491.568 Z" fill="#042030" style=""/>
  <path d="M 375.81 260.54 L 242.362 306.15 L 108.781 260.54 L 44.901 353.384 L 242.362 420.92 L 439.69 353.384 L 375.81 260.54 Z" style="fill: rgb(36, 78, 77);"/>
  <path opacity="0.45" d="M 68.179 349.595 L 231.941 412.258 L 175.639 356.498 C 175.639 356.498 83.202 334.166 68.179 349.595 Z" style="fill: rgb(96, 153, 102);"/>
  <path opacity="0.45" d="M 416.548 349.595 L 252.784 412.258 L 309.087 356.498 C 308.952 356.498 401.389 334.166 416.548 349.595 Z" style="fill: rgb(96, 153, 102);"/>
  <path d="M 242.362 420.92 L 44.901 353.384 L 44.901 362.181 L 242.362 429.718 L 439.69 362.181 L 439.69 353.384 L 242.362 420.92 Z" style="fill: rgb(157, 192, 139);"/>
  <path d="M 137.203 461.522 L 160.075 401.566 L 233.701 426.74 L 137.203 461.522 Z" style="fill: rgb(36, 78, 77);"/>
  <path opacity="0.45" d="M 143.564 444.198 L 233.701 426.74 L 160.075 401.566 L 143.564 444.198 Z" style="fill: rgb(36, 78, 77);"/>
  <path d="M 242.362 423.628 L 137.203 461.522 L 145.053 469.778 L 242.362 435.13 L 339.539 469.778 L 347.523 461.522 L 242.362 423.628 Z" style="fill: rgb(157, 192, 139);"/>
  <path d="M 347.523 461.522 L 324.515 401.566 L 250.89 426.74 L 347.523 461.522 Z" style="fill: rgb(36, 78, 77);"/>
  <path opacity="0.45" d="M 341.027 444.198 L 250.89 426.74 L 324.515 401.566 L 341.027 444.198 Z" style="fill: rgb(36, 78, 77);"/>
  <path d="M 242.362 435.13 C 246.324 435.13 249.536 431.92 249.536 427.957 C 249.536 423.997 246.324 420.785 242.362 420.785 C 238.402 420.785 235.19 423.997 235.19 427.957 C 235.19 431.92 238.402 435.13 242.362 435.13 Z" fill="white" fill-opacity="0.5" style=""/>
  <path d="M 370.125 260.54 L 242.362 324.151 L 114.602 260.54 C 108.781 268.256 61.953 346.348 61.953 346.348 C 62.495 346.348 62.9 346.481 63.443 346.481 C 180.918 358.257 213.536 395.205 224.363 404.137 C 235.19 413.206 242.498 412.258 242.498 412.258 C 242.498 412.258 249.808 413.206 260.634 404.137 C 271.462 395.205 304.079 358.257 421.555 346.481 C 422.096 346.481 422.502 346.348 423.044 346.348 C 422.773 346.348 375.81 268.39 370.125 260.54 Z" style="fill: rgb(197, 172, 143);"/>
  <path d="M 422.773 346.348 C 422.232 346.348 421.826 346.481 421.284 346.481 C 303.809 358.257 271.191 395.205 260.364 404.137 C 249.536 413.206 242.228 412.258 242.228 412.258 C 242.228 412.258 234.919 413.206 224.093 404.137 C 213.265 395.205 180.648 358.257 63.172 346.481 C 62.629 346.481 62.224 346.348 61.683 346.348 C 60.735 347.836 61.683 348.919 61.683 348.919 C 180.377 360.422 211.912 397.507 222.739 406.574 C 233.566 415.506 242.093 414.83 242.093 414.83 C 242.093 414.83 250.619 415.506 261.446 406.574 C 272.274 397.64 303.809 360.557 422.502 348.919 C 422.773 348.919 423.72 347.836 422.773 346.348 Z" style="fill: rgb(96, 153, 102);"/>
  <path d="M 365.253 253.097 C 299.883 237.397 242.228 291.127 242.228 291.127 C 242.228 291.127 184.573 237.397 119.203 253.097 C 119.203 253.097 100.662 281.518 75.081 329.836 C 75.081 329.836 203.791 344.317 242.228 398.318 C 280.665 344.317 409.375 329.836 409.375 329.836 C 383.795 281.518 365.253 253.097 365.253 253.097 Z" fill="#F5EFFB" style=""/>
  <path d="M 409.375 329.836 C 409.375 329.836 280.665 344.317 242.228 398.318 C 203.926 344.317 75.217 329.836 75.217 329.836 C 75.217 329.836 75.217 334.166 68.044 342.693 C 68.044 342.693 184.843 351.083 227.341 399.535 C 237.356 410.905 242.228 409.552 242.228 409.552 C 242.228 409.552 247.235 410.905 257.115 399.535 C 299.478 351.083 416.412 342.693 416.412 342.693 C 409.375 334.031 409.375 329.836 409.375 329.836 Z" fill="#DFCBF4" style=""/>
  <path d="M 357.944 258.781 C 357.944 258.781 309.087 246.33 242.228 298.166 C 175.505 246.466 126.511 258.781 126.511 258.781 L 93.488 322.934 C 193.911 329.836 242.228 380.588 242.228 380.588 C 242.228 380.588 290.544 329.836 390.968 322.934 L 357.944 258.781 Z M 242.362 374.497 C 242.362 374.497 197.158 328.211 101.337 319.143 L 129.082 261.487 C 129.082 261.487 177.129 252.149 242.362 301.144 C 307.597 252.149 355.644 261.487 355.644 261.487 L 383.389 319.143 C 287.567 328.211 242.362 374.497 242.362 374.497 Z" style="fill: rgb(197, 172, 143);"/>
  <path opacity="0.2" d="M 254.679 346.474 C 272.724 333.165 329.118 303.715 367.013 307.774" stroke="#863ED5" stroke-width="3" stroke-linecap="round" style=""/>
  <path opacity="0.2" d="M 254.679 309.127 C 270.694 296.589 312.335 272.018 350.773 274.058" stroke="#863ED5" stroke-width="3" stroke-linecap="round" style=""/>
  <path opacity="0.2" d="M 254.679 328.076 C 272.048 314.571 317.207 288.113 358.892 290.308" stroke="#863ED5" stroke-width="3" stroke-linecap="round" style=""/>
  <path opacity="0.2" d="M 231.671 346.474 C 213.626 333.165 157.234 303.715 119.338 307.774" stroke="#863ED5" stroke-width="3" stroke-linecap="round" style=""/>
  <path opacity="0.2" d="M 231.671 309.127 C 215.657 296.589 174.015 272.018 135.578 274.058" stroke="#863ED5" stroke-width="3" stroke-linecap="round" style=""/>
  <path opacity="0.2" d="M 231.671 328.076 C 214.303 314.571 169.144 288.113 127.458 290.308" stroke="#863ED5" stroke-width="3" stroke-linecap="round" style=""/>
  <path d="M 242.362 291.127 C 242.362 291.127 243.717 286.391 246.288 287.744 C 246.288 287.744 244.664 364.483 247.371 394.393 C 248.048 401.837 254.544 411.987 257.115 415.778 L 253.731 415.778 L 252.784 418.89 C 252.784 418.89 242.769 401.972 242.362 395.34 C 240.334 365.565 241.415 298.3 242.362 291.127 Z" fill="#54DAF5" style=""/>
</svg>